<?xml version="1.0" encoding="UTF-8"?>
<svg width="39px" height="39px" viewBox="0 0 39 39" version="1.1" xmlns="http://www.w3.org/2000/svg" xmlns:xlink="http://www.w3.org/1999/xlink">
    <!-- Generator: Sketch 48.2 (47327) - http://www.bohemiancoding.com/sketch -->
    <title>calendar</title>
    <desc>Created with Sketch.</desc>
    <defs></defs>
    <g id="Page-1" stroke="none" stroke-width="1" fill="none" fill-rule="evenodd">
        <g id="calendar" fill="#1783EF" fill-rule="nonzero">
            <g id="001-calendar">
                <path d="M31,23 C26.5886667,23 23,26.5886667 23,31 C23,35.4113333 26.5886667,39 31,39 C35.4113333,39 39,35.4113333 39,31 C39,26.5886667 35.4113333,23 31,23 Z M31,37.6666667 C27.324,37.6666667 24.3333333,34.676 24.3333333,31 C24.3333333,27.324 27.324,24.3333333 31,24.3333333 C34.676,24.3333333 37.6666667,27.324 37.6666667,31 C37.6666667,34.676 34.676,37.6666667 31,37.6666667 Z" id="Shape"></path>
                <path d="M34.375,29.75 L31.25,29.75 L31.25,26.625 C31.25,26.279375 30.970625,26 30.625,26 C30.279375,26 30,26.279375 30,26.625 L30,30.375 C30,30.720625 30.279375,31 30.625,31 L34.375,31 C34.720625,31 35,30.720625 35,30.375 C35,30.029375 34.720625,29.75 34.375,29.75 Z" id="Shape"></path>
                <path d="M18.6842105,14 L17.3157895,14 L12.5263158,14 L11.1578947,14 L5,14 L5,20.2068966 L5,21.5862069 L5,26.4137931 L5,27.7931034 L5,34 L11.1578947,34 L12.5263158,34 L18.6842105,34 L18.6842105,27.7931034 L18.6842105,26.4137931 L18.6842105,21.5862069 L23.4736842,21.5862069 L24.8421053,21.5862069 L31,21.5862069 L31,14 L24.8421053,14 L23.4736842,14 L18.6842105,14 Z M24.8421053,15.3793103 L29.6315789,15.3793103 L29.6315789,20.2068966 L24.8421053,20.2068966 L24.8421053,15.3793103 Z M12.5263158,15.3793103 L17.3157895,15.3793103 L17.3157895,20.2068966 L12.5263158,20.2068966 L12.5263158,15.3793103 Z M6.36842105,15.3793103 L11.1578947,15.3793103 L11.1578947,20.2068966 L6.36842105,20.2068966 L6.36842105,15.3793103 Z M6.36842105,21.5862069 L11.1578947,21.5862069 L11.1578947,26.4137931 L6.36842105,26.4137931 L6.36842105,21.5862069 Z M11.1578947,32.6206897 L6.36842105,32.6206897 L6.36842105,27.7931034 L11.1578947,27.7931034 L11.1578947,32.6206897 Z M17.3157895,32.6206897 L12.5263158,32.6206897 L12.5263158,27.7931034 L17.3157895,27.7931034 L17.3157895,32.6206897 Z M17.3157895,26.4137931 L12.5263158,26.4137931 L12.5263158,21.5862069 L17.3157895,21.5862069 L17.3157895,26.4137931 Z M23.4736842,20.2068966 L18.6842105,20.2068966 L18.6842105,15.3793103 L23.4736842,15.3793103 L23.4736842,20.2068966 Z" id="Shape"></path>
                <path d="M22.2115385,36.6666667 L1.34615385,36.6666667 L1.34615385,10.6666667 L33.6538462,10.6666667 L33.6538462,19.3333333 C33.6538462,19.702 33.9547115,20 34.3269231,20 C34.6991346,20 35,19.702 35,19.3333333 L35,10 L35,3.33333333 C35,2.96466667 34.6991346,2.66666667 34.3269231,2.66666667 L30.9615385,2.66666667 L30.9615385,0.666666667 C30.9615385,0.298 30.6606731,0 30.2884615,0 L25.5769231,0 C25.2047115,0 24.9038462,0.298 24.9038462,0.666666667 L24.9038462,2.66666667 L10.0961538,2.66666667 L10.0961538,0.666666667 C10.0961538,0.298 9.79528846,0 9.42307692,0 L4.71153846,0 C4.33932692,0 4.03846154,0.298 4.03846154,0.666666667 L4.03846154,2.66666667 L0.673076923,2.66666667 C0.300865385,2.66666667 0,2.96466667 0,3.33333333 L0,10 L0,37.3333333 C0,37.702 0.300865385,38 0.673076923,38 L22.2115385,38 C22.58375,38 22.8846154,37.702 22.8846154,37.3333333 C22.8846154,36.9646667 22.58375,36.6666667 22.2115385,36.6666667 Z M26.25,1.33333333 L29.6153846,1.33333333 L29.6153846,3.33333333 L29.6153846,5.33333333 L26.25,5.33333333 L26.25,3.33333333 L26.25,1.33333333 Z M5.38461538,1.33333333 L8.75,1.33333333 L8.75,3.33333333 L8.75,5.33333333 L5.38461538,5.33333333 L5.38461538,3.33333333 L5.38461538,1.33333333 Z M1.34615385,4 L4.03846154,4 L4.03846154,6 C4.03846154,6.36866667 4.33932692,6.66666667 4.71153846,6.66666667 L9.42307692,6.66666667 C9.79528846,6.66666667 10.0961538,6.36866667 10.0961538,6 L10.0961538,4 L24.9038462,4 L24.9038462,6 C24.9038462,6.36866667 25.2047115,6.66666667 25.5769231,6.66666667 L30.2884615,6.66666667 C30.6606731,6.66666667 30.9615385,6.36866667 30.9615385,6 L30.9615385,4 L33.6538462,4 L33.6538462,9.33333333 L1.34615385,9.33333333 L1.34615385,4 Z" id="Shape"></path>
            </g>
        </g>
    </g>
</svg>