<?xml version="1.0" encoding="UTF-8"?>
<svg width="51px" height="52px" viewBox="0 0 51 52" version="1.1" xmlns="http://www.w3.org/2000/svg" xmlns:xlink="http://www.w3.org/1999/xlink">
    <!-- Generator: Sketch 48.2 (47327) - http://www.bohemiancoding.com/sketch -->
    <title>call</title>
    <desc>Created with Sketch.</desc>
    <defs></defs>
    <g id="Page-1" stroke="none" stroke-width="1" fill="none" fill-rule="evenodd">
        <g id="call" fill="#1783EF" fill-rule="nonzero">
            <g id="007-customer-support">
                <path d="M47.8032047,0.0213164062 L30.5124152,0.0213164062 C28.8045614,0.0213164062 27.4150351,1.41345703 27.4150351,3.12474609 L27.4150351,14.958041 C27.4150351,16.6693301 28.8045614,18.0614707 30.5124152,18.0614707 L31.1118889,18.0614707 L31.1118889,20.7827988 C31.1118889,21.2940938 31.4164971,21.751002 31.8880234,21.9467344 C32.0446023,22.0116797 32.2082398,22.0432559 32.3704854,22.0432559 C32.6969649,22.0432559 33.0170819,21.9152578 33.2583626,21.6736055 L36.8634561,18.0614707 L47.8033041,18.0614707 C49.5111579,18.0614707 50.9006842,16.6693301 50.9006842,14.958041 L50.9006842,3.12474609 C50.9005848,1.41355664 49.5110585,0.0213164062 47.8032047,0.0213164062 Z M47.8032047,16.459752 L36.8421813,16.459752 C36.4289123,16.459752 36.0402982,16.6210195 35.7479181,16.9138711 L32.7104854,19.9573359 L32.7104854,18.0103711 C32.7104854,17.1554238 32.016269,16.459752 31.1629883,16.459752 L30.5124152,16.459752 C29.6859766,16.459752 29.0136316,15.7860938 29.0136316,14.958041 L29.0136316,3.1248457 C29.0136316,2.29679297 29.6859766,1.62313477 30.5124152,1.62313477 L47.8032047,1.62313477 C48.6296433,1.62313477 49.3019883,2.29679297 49.3019883,3.1248457 L49.3019883,14.9581406 C49.3019883,15.7860938 48.6296433,16.459752 47.8032047,16.459752 Z" id="Shape"></path>
                <path d="M40.0047778,12.3641133 C39.7985906,12.1529414 39.5487602,12.0472559 39.2555848,12.0472559 C38.9639006,12.0472559 38.7121813,12.1505508 38.5006257,12.3571406 C38.2888713,12.5638301 38.1830936,12.8141484 38.1830936,13.1079961 C38.1830936,13.3927793 38.2883743,13.640707 38.4993333,13.8518789 C38.7100936,14.06325 38.9620117,14.1687363 39.2555848,14.1687363 C39.5487602,14.1687363 39.7986901,14.06325 40.0047778,13.8518789 C40.2110643,13.6408066 40.3141579,13.3927793 40.3141579,13.1079961 C40.3141579,12.8235117 40.2110643,12.5754844 40.0047778,12.3641133 Z" id="Shape"></path>
                <path d="M41.5653977,4.6633125 C41.0243801,4.23170508 40.3186316,4.01585156 39.4479532,4.01585156 C38.5955673,4.01585156 37.9308772,4.21347656 37.4543801,4.60822852 C36.9775848,5.00317969 36.739386,5.42094141 36.739386,5.8618125 C36.739386,6.10974023 36.8237895,6.30268359 36.9928947,6.44044336 C37.1617018,6.57820312 37.3511871,6.6470332 37.5613509,6.6470332 C37.7256842,6.6470332 37.8627778,6.59623242 37.9722339,6.49463086 C38.0817895,6.3930293 38.1685789,6.28086914 38.2326023,6.15805078 C38.2966257,6.03533203 38.4289474,5.92297266 38.6300643,5.82137109 C38.830883,5.71976953 39.0865789,5.66896875 39.3972515,5.66896875 C39.7624035,5.66896875 40.0593567,5.7481582 40.2877135,5.9064375 C40.5160702,6.06481641 40.6302982,6.2932207 40.6302982,6.59175 C40.6302982,6.76357617 40.5797953,6.93311133 40.4790877,7.1006543 C40.3781813,7.26809766 40.2866199,7.39250977 40.2041053,7.47389062 C40.1215906,7.55527148 39.9749532,7.6775918 39.764193,7.84025391 C39.5532339,8.00301562 39.4341345,8.09784375 39.4066959,8.12503711 C38.7924094,8.6497793 38.4855146,9.3372832 38.4855146,10.1875488 C38.4855146,10.5405645 38.5404912,10.7803242 38.6504444,10.9069277 C38.7604971,11.0334316 38.9574386,11.0967832 39.2416667,11.0967832 C39.782386,11.0967832 40.0527953,10.9086211 40.0527953,10.531998 C40.0527953,10.2381504 40.0641287,10.0201055 40.0870936,9.87766406 C40.1098596,9.73542187 40.1785556,9.57007031 40.2933801,9.38170898 C40.4079064,9.19354687 40.5848655,9.00289453 40.8241579,8.81005078 C41.8587719,8.01098437 42.3763275,7.17067969 42.3763275,6.28903711 C42.3766257,5.63699414 42.106117,5.09521875 41.5653977,4.6633125 Z" id="Shape"></path>
                <g id="Group" transform="translate(0.000000, 11.953125)">
                    <path d="M27.5621696,27.9527813 L23.8513977,27.2247363 C23.3986608,27.1358848 22.9953333,26.9651543 22.6600058,26.737248 C22.6342573,26.7172266 22.6075146,26.6992969 22.5798772,26.6828613 C22.0028713,26.2607168 21.6521345,25.6590762 21.6521345,25.00275 L21.6521345,23.458207 C22.1795322,23.0477168 22.6561287,22.5755684 23.0716842,22.0521211 C24.8542982,22.0172578 26.3000936,20.5842773 26.3599415,18.8043574 C27.2217719,18.5157891 27.8454035,17.701084 27.8454035,16.7418457 L27.8454035,12.6553711 C27.8454035,11.7255176 27.2590526,10.9323281 26.4383801,10.6216465 C26.8117836,10.4740254 27.0230409,10.0660254 26.9160702,9.66858398 C26.1542515,6.84117187 24.9256784,4.59139453 23.2647485,2.98170703 C21.3511053,1.12678125 19.2304795,0.126802734 16.9614269,0.00926367187 C16.8154854,0.00189257812 13.3542456,-0.146326172 10.3357018,2.42738086 C9.46929825,3.16608398 8.70230994,4.0938457 8.0554152,5.18456836 C8.05491813,5.18536523 8.05432164,5.1860625 8.05382456,5.18685937 C8.05193567,5.18984766 8.05034503,5.19293555 8.04845614,5.19592383 C8.04706433,5.19841406 8.04547368,5.20070508 8.04408187,5.2030957 C8.04378363,5.20369336 8.0435848,5.20429102 8.04318713,5.20478906 C7.4414269,6.17508398 7.01891228,7.23213867 6.78807018,8.34716602 C6.63089474,9.10608984 6.56627485,9.87846094 6.59361404,10.6517285 C5.8152924,10.9827305 5.2680117,11.7561973 5.2680117,12.6553711 L5.2680117,16.7418457 C5.2680117,17.9414414 6.24208187,18.9173145 7.43923977,18.9173145 L8.4875731,18.9173145 C8.97987719,20.864877 10.1584444,22.5400078 11.7485906,23.6718691 L11.7485906,25.00275 C11.7485906,25.6591758 11.397655,26.2610156 10.8204503,26.6831602 C10.7932105,26.6993965 10.7667661,26.7172266 10.7412164,26.7369492 C10.4057895,26.9650547 10.0022632,27.1358848 9.54932749,27.2247363 L5.83855556,27.9527812 C2.40087719,28.6272363 0,31.2080156 0,34.2289687 L0,38.2246992 C0,38.6669648 0.357795322,39.0255586 0.799298246,39.0255586 L32.6014269,39.0255586 C33.0429298,39.0255586 33.4007251,38.6669648 33.4007251,38.2246992 L33.4007251,34.2289687 C33.4007251,31.2080156 30.9997485,28.6272363 27.5621696,27.9527813 Z M24.3314737,19.8438809 C24.4465965,19.5427617 24.5458129,19.2339727 24.6258421,18.9173145 L24.747924,18.9173145 C24.7022924,19.269334 24.553269,19.5883828 24.3314737,19.8438809 Z M26.2469064,12.6551719 L26.2469064,16.7416465 C26.2469064,17.0580059 25.9900175,17.3153965 25.6742749,17.3153965 L24.8802456,17.3153965 L24.8802456,16.870541 L24.8802456,12.0814219 L25.6742749,12.0814219 C25.9900175,12.0814219 26.2469064,12.3389121 26.2469064,12.6551719 Z M11.3716082,3.64719727 C13.890193,1.49981836 16.8520702,1.60739648 16.8790117,1.60889063 C18.7509006,1.70581055 20.5253626,2.55488086 22.153386,4.13289258 C23.6039532,5.53887891 24.6871813,7.54172461 25.3726491,10.0860469 C25.4153977,10.2448242 25.5030819,10.3792969 25.6181053,10.4799023 L24.8470409,10.4799023 C24.749117,10.148502 24.4435146,9.90655078 24.0809474,9.90655078 C23.9222807,9.90655078 23.774848,9.9534668 23.6505789,10.0332539 C23.6476959,10.0350469 23.6453099,10.0359434 23.6424269,10.0378359 C22.7863626,10.6007285 20.747655,10.946373 19.6627368,10.946373 C17.0053684,10.946373 14.4458246,9.99520313 12.2730058,8.25821484 L9.73543275,5.51746289 C10.221076,4.78862109 10.7693509,4.16058398 11.3716082,3.64719727 Z M8.23326901,16.8706406 L8.23326901,17.3154961 L8.23316959,17.3154961 L7.43923977,17.3154961 C7.12349708,17.3154961 6.86660819,17.0581055 6.86660819,16.7417461 L6.86660819,12.6553711 C6.86660819,12.3390117 7.12349708,12.0816211 7.43923977,12.0816211 L8.23326901,12.0816211 L8.23326901,16.8706406 Z M8.84815205,9.92866406 C8.74545614,9.95296875 8.65061404,9.99699609 8.56750292,10.0566621 C8.44174269,10.111248 8.31488889,10.1637422 8.18594737,10.2121523 C8.19221053,9.6952793 8.24798246,9.18019922 8.35316374,8.67249023 C8.46550292,8.12981836 8.63450877,7.60447852 8.8537193,7.09935937 C9.37366082,7.73855273 9.92879532,8.32694531 10.5144503,8.86134961 C9.92193567,9.33977344 9.41611111,9.63411914 9.18556725,9.75823242 C9.07481871,9.81789844 8.96198246,9.87407812 8.84815205,9.92866406 Z M9.8318655,16.8706406 L9.8318655,11.2807617 L9.8318655,11.2265742 C9.86864912,11.2073496 9.90592982,11.1889219 9.9424152,11.1692988 C10.2499064,11.003748 10.9687778,10.5840938 11.774538,9.89439844 C14.118152,11.6128594 16.8371579,12.5480918 19.6627368,12.5480918 C20.5583684,12.5480918 22.0591404,12.3539531 23.2816491,11.9452559 L23.2816491,16.8707402 C23.2816491,18.1861816 22.9020819,19.4137676 22.2490234,20.4520957 L17.3350292,20.4520957 C16.8935263,20.4520957 16.535731,20.8106895 16.535731,21.2529551 C16.535731,21.6952207 16.8935263,22.0538145 17.3350292,22.0538145 L20.848462,22.0538145 C19.683117,23.024209 18.1868187,23.6088164 16.5566082,23.6088164 C12.8485205,23.6088164 9.8318655,20.5860703 9.8318655,16.8706406 Z M31.8021287,37.4239395 L27.3801404,37.4239395 L27.3801404,36.063375 C27.3801404,35.6211094 27.022345,35.2625156 26.5808421,35.2625156 C26.1393392,35.2625156 25.7815439,35.6211094 25.7815439,36.063375 L25.7815439,37.4239395 L7.62554386,37.4239395 L7.62554386,36.063375 C7.62554386,35.6211094 7.26774854,35.2625156 6.82624561,35.2625156 C6.38474269,35.2625156 6.02694737,35.6211094 6.02694737,36.063375 L6.02694737,37.4239395 L1.59859649,37.4239395 L1.59859649,34.2290684 C1.59859649,31.9843711 3.46839766,30.0498574 6.14574854,29.5247168 L9.85652047,28.7966719 C10.3268538,28.7044336 10.7642807,28.5509355 11.1598538,28.3481309 C11.6406257,28.7168848 12.1564912,29.0372285 12.6997953,29.3033848 C12.8128304,29.358668 12.9324269,29.3848652 13.0502339,29.3848652 C13.3459942,29.3848652 13.6303216,29.2197129 13.7690058,28.935627 C13.9627661,28.5381855 13.7984327,28.058666 13.4019649,27.8643281 C13.079462,27.7064473 12.7689883,27.5245605 12.4722339,27.3219551 C13.0266725,26.6714062 13.3471871,25.8673594 13.3471871,25.0028496 L13.3471871,24.5649668 C14.3354737,24.9803379 15.4196959,25.2106348 16.556807,25.2106348 C17.8053626,25.2106348 18.9895965,24.9319277 20.053538,24.4362715 L20.053538,25.0028496 C20.053538,25.8670605 20.3737544,26.6708086 20.9277953,27.3211582 C19.6869942,28.1663438 18.2161462,28.625543 16.7003626,28.625543 C16.3926725,28.625543 16.0832924,28.6068164 15.7805731,28.5698613 C15.3419532,28.5163711 14.9437953,28.8289453 14.8904094,29.2679238 C14.8370234,29.707002 15.1490877,30.1062363 15.5872105,30.1597266 C15.9538538,30.2045508 16.3284503,30.2271621 16.7003626,30.2271621 C18.7092456,30.2271621 20.6531111,29.5620703 22.2386842,28.3469355 C22.6348538,28.5503379 23.0729766,28.7042344 23.5442047,28.7966719 L27.2549766,29.5247168 C29.9323275,30.049957 31.8021287,31.9844707 31.8021287,34.2290684 L31.8021287,37.4239395 Z" id="Shape"></path>
                    <path d="M16.5666491,20.3784844 C17.5398246,20.3784844 18.513,20.0073398 19.2539415,19.2649512 C19.5451287,18.9732949 19.5451287,18.50025 19.2539415,18.2084941 C18.9627544,17.9167383 18.490731,17.9167383 18.1994444,18.2084941 C17.2989415,19.1107559 15.8340585,19.1106563 14.9337544,18.2084941 C14.6425673,17.9167383 14.1705439,17.9167383 13.8792573,18.2084941 C13.5880702,18.5001504 13.5880702,18.9731953 13.8792573,19.2649512 C14.6201988,20.0073398 15.5933743,20.3784844 16.5666491,20.3784844 Z" id="Shape"></path>
                </g>
                <ellipse id="Oval" cx="13.5731579" cy="25.6016016" rx="1" ry="1"></ellipse>
                <ellipse id="Oval" cx="19.2438012" cy="25.6016016" rx="1" ry="1"></ellipse>
            </g>
        </g>
    </g>
</svg>