<?xml version="1.0" encoding="UTF-8"?>
<svg width="34px" height="31px" viewBox="0 0 34 31" version="1.1" xmlns="http://www.w3.org/2000/svg" xmlns:xlink="http://www.w3.org/1999/xlink">
    <!-- Generator: Sketch 48.2 (47327) - http://www.bohemiancoding.com/sketch -->
    <title>mac</title>
    <desc>Created with Sketch.</desc>
    <defs></defs>
    <g id="Page-1" stroke="none" stroke-width="1" fill="none" fill-rule="evenodd">
        <g id="mac" fill="#1783EF" fill-rule="nonzero">
            <g id="002-monitor">
                <path d="M25.8268645,11.6207765 L22.0091751,8.15711233 C21.7783869,7.94766141 21.4041454,7.94759704 21.1731444,8.15711233 C20.9422852,8.36649888 20.9422852,8.7061003 21.1731444,8.91555122 L24.5728893,12.0000282 L21.1731444,15.0844407 C20.9422852,15.2938273 20.9422852,15.6334287 21.1731444,15.8428796 C21.2886449,15.9476695 21.4399023,16 21.5911597,16 C21.7424172,16 21.8937456,15.9476051 22.0091042,15.842944 L25.8267936,12.3792798 C26.0577237,12.1698289 26.0577237,11.8302274 25.8268645,11.6207765 Z" id="Shape"></path>
                <path d="M9.42713728,12.0000161 L12.8268535,8.91552984 C13.0577155,8.70614266 13.0577155,8.36654021 12.8268535,8.15708866 C12.5960624,7.94763711 12.2217453,7.94763711 11.9908833,8.15708866 L8.17314651,11.6207633 C7.9422845,11.8301505 7.9422845,12.1697529 8.17314651,12.3792045 L11.9908833,15.8428792 C12.1062433,15.9476693 12.2575736,16 12.4088329,16 C12.5600922,16 12.7114225,15.9476049 12.8267825,15.8428148 C13.0576446,15.6334276 13.0576446,15.2938252 12.8267825,15.0843736 L9.42713728,12.0000161 Z" id="Shape"></path>
                <path d="M18.6477646,6.02719874 C18.3822431,5.93057943 18.0986813,6.09955896 18.0146539,6.40443113 L15.0236935,17.2457438 C14.9395451,17.5506854 15.0866534,17.8762022 15.3522354,17.9728215 C15.4029666,17.9913112 15.4542426,18 15.5047316,18 C15.7187349,18 15.9173614,17.8422811 15.9854671,17.5955891 L18.9763065,6.75427646 C19.0604549,6.44926527 18.9133466,6.12374855 18.6477646,6.02719874 Z" id="Shape"></path>
                <path d="M31.2937408,0 L2.7063256,0 C1.21410784,0 0,1.22554258 0,2.73181438 L0,6.70190738 C0,7.01038777 0.247762203,7.26041642 0.553297956,7.26041642 C0.858833709,7.26041642 1.10659591,7.01032074 1.10659591,6.70190738 L1.10659591,2.73181438 C1.10659591,1.84136382 1.82424966,1.11701808 2.7063256,1.11701808 L31.2937408,1.11701808 C32.1758832,1.11701808 32.8934705,1.84143085 32.8934705,2.73181438 L32.8934705,21.7963984 L29.4263934,21.7963984 C29.1207913,21.7963984 28.8730955,22.0464941 28.8730955,22.3549075 C28.8730955,22.6633208 29.1208577,22.9134165 29.4263934,22.9134165 L32.8934705,22.9134165 L32.8934705,23.9371934 C32.8934705,24.8276439 32.1758167,25.5519897 31.2937408,25.5519897 L20.9735253,25.5519897 L13.0265411,25.5519897 L2.7063256,25.5519897 C1.82418325,25.5519897 1.10659591,24.8275769 1.10659591,23.9371934 L1.10659591,22.9134165 L27.5820226,22.9134165 C27.8876248,22.9134165 28.1353206,22.6633208 28.1353206,22.3549075 C28.1353206,22.0464941 27.8875584,21.7963984 27.5820226,21.7963984 L1.10659591,21.7963984 L1.10659591,8.5637159 C1.10659591,8.25523551 0.858833709,8.00520686 0.553297956,8.00520686 C0.247762203,8.00520686 0,8.25523551 0,8.5637159 L0,23.9373274 C0,25.4436663 1.21410784,26.6691418 2.7063256,26.6691418 L12.1882269,26.6691418 L10.8272946,29.8829819 L8.16878158,29.8829819 C7.86317942,29.8829819 7.61548362,30.1330776 7.61548362,30.441491 C7.61548362,30.7499043 7.86324583,31 8.16878158,31 L25.8312184,31 C26.1368206,31 26.3845164,30.7499043 26.3845164,30.441491 C26.3845164,30.1330776 26.1367542,29.8829819 25.8312184,29.8829819 L23.1727054,29.8829819 L21.8117731,26.6691418 L31.2936744,26.6691418 C32.7859586,26.6691418 34,25.4436663 34,23.9373274 L34,2.73181438 C34.0000664,1.22554258 32.7859586,0 31.2937408,0 Z M21.9692226,29.8829149 L12.0308438,29.8829149 L12.9763378,27.6500853 L21.023795,27.6500853 L21.9692226,29.8829149 Z" id="Shape"></path>
            </g>
        </g>
    </g>
</svg>