<?xml version="1.0" encoding="UTF-8"?>
<svg width="40px" height="27px" viewBox="0 0 40 27" version="1.1" xmlns="http://www.w3.org/2000/svg" xmlns:xlink="http://www.w3.org/1999/xlink">
    <!-- Generator: Sketch 48.2 (47327) - http://www.bohemiancoding.com/sketch -->
    <title>speed</title>
    <desc>Created with Sketch.</desc>
    <defs></defs>
    <g id="Page-1" stroke="none" stroke-width="1" fill="none" fill-rule="evenodd">
        <g id="speed" fill="#1783EF" fill-rule="nonzero">
            <g id="004-dashboard">
                <path d="M28.5767578,10.212994 L18.5423978,19.0358906 C18.5289785,19.0476232 18.5156395,19.0593559 18.5039077,19.0718922 C18.1791118,19.3950231 18,19.8260787 18,20.2856623 C18,21.2307057 18.7684371,22 19.7142182,22 C20.1695913,22 20.5998133,21.8225633 20.9647867,21.4575644 L29.7871487,11.422505 C30.0851059,11.0834626 30.068392,10.5703586 29.7486585,10.2506029 C29.4288447,9.93173108 28.9182675,9.91493567 28.5767578,10.212994 Z" id="Shape"></path>
                <path d="M20,0 C8.97132812,0 0,9.0843221 0,20.2499604 C0,22.3444866 0.320625,24.4176554 0.950546875,26.4133049 C1.06125,26.7626958 1.381875,27 1.74484375,27 L38.2552344,27 C38.6182031,27 38.9388281,26.7626958 39.0495313,26.4133049 C39.679375,24.4176554 40,22.3445657 40,20.2499604 C40,9.0843221 31.0286719,0 20,0 Z M35.8333594,21.0937352 L38.2755469,21.0937352 C38.2111719,22.5207246 38.0226563,23.9371935 37.6367188,25.3124506 L2.36328125,25.3124506 C1.97734375,23.9371144 1.78882813,22.5207246 1.72445313,21.0937352 L4.16664063,21.0937352 C4.62726563,21.0937352 5,20.7163424 5,20.2499604 C5,19.7835785 4.62726563,19.4061857 4.16664063,19.4061857 L1.70882813,19.4061857 C1.83234375,16.6440437 2.54320313,14.0379687 3.73601563,11.7168961 L5.87070313,12.9651954 C6.00257813,13.0418446 6.14578125,13.0780731 6.28734375,13.0780731 C6.57382813,13.0780731 6.85539063,12.9273058 7.00835938,12.6562253 C7.23945313,12.2524917 7.10273438,11.7366714 6.70398438,11.5034805 L4.5740625,10.2579497 C6.00554688,8.00047461 7.90234375,6.08012973 10.1320313,4.63083373 L11.3621875,6.78872014 C11.5151563,7.05900965 11.7967969,7.21056795 12.0832031,7.21056795 C12.2248438,7.21056795 12.3680469,7.1743395 12.4998438,7.09769024 C12.8985938,6.86449929 13.0353125,6.34867901 12.8042188,5.94494542 L11.5716406,3.78294574 C13.8642188,2.57506724 16.4382813,1.85524442 19.1665625,1.7301851 L19.1665625,4.21871539 C19.1665625,4.68509729 19.5392969,5.06249011 19.9999219,5.06249011 C20.4605469,5.06249011 20.8332813,4.68509729 20.8332813,4.21871539 L20.8332813,1.7301851 C23.5615625,1.85524442 26.135625,2.57506724 28.4282031,3.78294574 L27.195625,5.94494542 C26.9645313,6.34867901 27.10125,6.86449929 27.5,7.09769024 C27.631875,7.1743395 27.7750781,7.21056795 27.9166406,7.21056795 C28.203125,7.21056795 28.4846875,7.05893055 28.6376563,6.78872014 L29.8678125,4.63083373 C32.0975,6.08012973 33.9942969,8.00047461 35.4257813,10.2579497 L33.2958594,11.5034805 C32.8971094,11.7366714 32.7603906,12.2524917 32.9914844,12.6562253 C33.1444531,12.9273058 33.4260938,13.0780731 33.7125,13.0780731 C33.8540625,13.0780731 33.9973438,13.0418446 34.1291406,12.9651954 L36.2638281,11.7168961 C37.4566406,14.0380478 38.1675,16.6440437 38.2910156,19.4061857 L35.8332031,19.4061857 C35.3725781,19.4061857 34.9998438,19.7835785 34.9998438,20.2499604 C35,20.7163424 35.3727344,21.0937352 35.8333594,21.0937352 Z" id="Shape"></path>
            </g>
        </g>
    </g>
</svg>